#!OML:ASF G:\JayActor3\Patient Classification 1\Patient 1\Session 6\male.ASF
:FULLY-SPECIFIED
:DEGREES
400
root 33.2852 16.1228 -14.3058 9.55531 -65.549 -11.6896
lowerback 0.706016 0.336154 7.68258
upperback 3.77398 0.248153 1.26085
thorax 3.55717 0.316841 -2.98952
lowerneck -10.4694 0.535779 3.33362
upperneck 19.4517 0.0982142 -0.801561
head 7.72329 0.144306 -0.82012
rclavicle 5.28767e-014 -1.43125e-014
rhumerus -22.7288 -5.6514 -83.3683
rradius 27.8306
rwrist 4.29162
rhand -17.1979 -7.65137
rfingers 7.12502
rthumb 9.0444 -37.4375
lclavicle 5.28767e-014 -1.43125e-014
lhumerus -33.5401 6.04055 83.7628
lradius 34.3077
lwrist 20.668
lhand -16.8004 10.256
lfingers 7.12502
lthumb 9.42795 40.0251
rfemur -6.00264 -4.23627 30.4935
rtibia 29.8485
rfoot -24.9184 -9.89673
rtoes 2.41495
lfemur -24.6823 6.11171 -15.0816
ltibia 57.6624
lfoot -13.4864 3.22993
ltoes -16.5897
401
root 33.167 16.113 -14.2662 9.74618 -65.4966 -11.9057
lowerback 0.734998 0.370422 7.8044
upperback 3.74854 0.297554 1.23573
thorax 3.52179 0.343995 -3.08253
lowerneck -10.4708 0.500768 3.28939
upperneck 19.487 0.0444694 -0.73877
head 7.73408 0.121436 -0.797466
rclavicle 3.75703e-014 -1.41137e-014
rhumerus -22.3423 -5.25962 -83.4671
rradius 28.0309
rwrist 4.10612
rhand -17.0784 -7.74263
rfingers 7.12502
rthumb 9.15966 -37.5237
lclavicle 3.75703e-014 -1.41137e-014
lhumerus -33.6514 6.19558 83.6982
lradius 34.1794
lwrist 20.5443
lhand -16.7236 10.2286
lfingers 7.12502
lthumb 9.50202 39.9943
rfemur -5.37476 -4.39257 30.6006
rtibia 29.5918
rfoot -25.0449 -9.83164
rtoes 2.41856
lfemur -25.4022 6.16293 -15.3604
ltibia 56.2352
lfoot -14.0046 3.92316
ltoes -16.6251
402
root 33.0479 16.1058 -14.2251 9.96202 -65.4484 -12.1369
lowerback 0.747063 0.402918 7.93497
upperback 3.7257 0.342659 1.21215
thorax 3.49865 0.369664 -3.17886
lowerneck -10.4688 0.472473 3.25841
upperneck 19.5002 0.00110772 -0.689917
head 7.73719 0.103169 -0.780479
rclavicle 7.35503e-015 3.18055e-015
rhumerus -21.9648 -4.84558 -83.569
rradius 28.2519
rwrist 3.90566
rhand -16.9712 -7.82284
rfingers 7.12502
rthumb 9.26315 -37.5994
lclavicle 7.35503e-015 3.18055e-015
lhumerus -33.7596 6.35474 83.6392
lradius 34.0195
lwrist 20.4093
lhand -16.659 10.2007
lfingers 7.12502
lthumb 9.56437 39.9637
rfemur -4.70003 -4.54918 30.7089
rtibia 29.2295
rfoot -25.1105 -9.79884
rtoes 2.38485
lfemur -26.0453 6.22803 -15.6417
ltibia 54.6685
lfoot -14.4629 4.61501
ltoes -16.6502
403
root 32.9277 16.1007 -14.1825 10.2053 -65.4007 -12.382
lowerback 0.734251 0.434064 8.07726
upperback 3.70613 0.383108 1.18998
thorax 3.49297 0.393997 -3.28019
lowerneck -10.4608 0.446672 3.25219
upperneck 19.4867 -0.037882 -0.663549
head 7.73055 0.0866529 -0.774449
rclavicle 2.02512e-014 -9.54166e-015
rhumerus -21.5968 -4.40994 -83.6709
rradius 28.4947
rwrist 3.68776
rhand -16.8888 -7.88688
rfingers 7.12502
rthumb 9.34262 -37.6598
lclavicle 2.02512e-014 -9.54166e-015
lhumerus -33.8606 6.51511 83.5875
lradius 33.8253
lwrist 20.2639
lhand -16.6075 10.1754
lfingers 7.12502
lthumb 9.61407 39.936
rfemur -3.98598 -4.71263 30.8179
rtibia 28.7695
rfoot -25.122 -9.79461
rtoes 2.31104
lfemur -26.6216 6.3042 -15.9261
ltibia 52.982
lfoot -14.8747 5.30482
ltoes -16.547
404
root 32.8066 16.0965 -14.1385 10.4725 -65.3575 -12.6391
lowerback 0.696014 0.462659 8.22474
upperback 3.69187 0.416992 1.17115
thorax 3.5068 0.41596 -3.38088
lowerneck -10.4624 0.427421 3.24013
upperneck 19.4632 -0.0658189 -0.641005
head 7.72253 0.0746738 -0.767577
rclavicle 4.5149e-014 -1.46107e-014
rhumerus -21.2308 -3.9515 -83.7725
rradius 28.7498
rwrist 3.46419
rhand -16.8373 -7.92002
rfingers 7.12502
rthumb 9.39232 -37.6908
lclavicle 4.5149e-014 -1.46107e-014
lhumerus -33.9526 6.69838 83.5379
lradius 33.5917
lwrist 20.0933
lhand -16.5502 10.1276
lfingers 7.12502
lthumb 9.66935 39.8857
rfemur -3.23873 -4.87437 30.9279
rtibia 28.2278
rfoot -25.1022 -9.81271
rtoes 2.17884
lfemur -27.1379 6.3949 -16.2163
ltibia 51.1966
lfoot -15.2403 6.01327
ltoes -16.3382
405
root 32.6844 16.0927 -14.0931 10.7594 -65.3188 -12.9039
lowerback 0.63163 0.489281 8.37377
upperback 3.68383 0.444863 1.15562
thorax 3.54149 0.435845 -3.47889
lowerneck -10.4674 0.412773 3.23824
upperneck 19.4181 -0.0849848 -0.636432
head 7.70811 0.0659496 -0.767341
rclavicle 2.9681e-014 -2.65378e-014
rhumerus -20.8695 -3.48316 -83.8713
rradius 29.023
rwrist 3.24615
rhand -16.8167 -7.93602
rfingers 7.12502
rthumb 9.41222 -37.7059
lclavicle 2.9681e-014 -2.65378e-014
lhumerus -34.0298 6.91154 83.4901
lradius 33.3148
lwrist 19.8936
lhand -16.5002 10.0837
lfingers 7.12502
lthumb 9.71762 39.8396
rfemur -2.46323 -5.03181 31.0376
rtibia 27.6179
rfoot -25.0677 -9.84179
rtoes 1.99079
lfemur -27.602 6.50763 -16.5133
ltibia 49.3329
lfoot -15.5628 6.73652
ltoes -16.0142
406
root 32.5615 16.0881 -14.0465 11.0616 -65.2835 -13.1701
lowerback 0.543999 0.511603 8.5198
upperback 3.67883 0.464149 1.1422
thorax 3.59159 0.452043 -3.573
lowerneck -10.4817 0.404771 3.22927
upperneck 19.3646 -0.0931552 -0.634022
head 7.69284 0.0617963 -0.765532
rclavicle -5.07522e-014 1.97791e-014
rhumerus -20.513 -2.9991 -83.9705
rradius 29.3136
rwrist 3.02663
rhand -16.7916 -7.97359
rfingers 7.12502
rthumb 9.43644 -37.7423
lclavicle -5.07522e-014 1.97791e-014
lhumerus -34.0997 7.14829 83.4403
lradius 32.9999
lwrist 19.6778
lhand -16.458 10.0484
lfingers 7.12502
lthumb 9.75827 39.8023
rfemur -1.66852 -5.18728 31.1436
rtibia 26.9539
rfoot -25.03 -9.86274
rtoes 1.74949
lfemur -28.0269 6.65458 -16.8246
ltibia 47.407
lfoot -15.8123 7.48245
ltoes -15.7099
407
root 32.438 16.0827 -13.999 11.4083 -65.2491 -13.4736
lowerback 0.439797 0.530906 8.67838
upperback 3.67516 0.476873 1.13286
thorax 3.65206 0.465769 -3.66987
lowerneck -10.4914 0.403034 3.22643
upperneck 19.2949 -0.0927238 -0.634244
head 7.67158 0.0618988 -0.76469
rclavicle 9.51682e-015 -6.06293e-015
rhumerus -20.1708 -2.5146 -84.0725
rradius 29.6195
rwrist 2.79774
rhand -16.7815 -7.99984
rfingers 7.12502
rthumb 9.44619 -37.7681
lclavicle 9.51682e-015 -6.06293e-015
lhumerus -34.1654 7.40952 83.3816
lradius 32.6466
lwrist 19.4455
lhand -16.399 10.0006
lfingers 7.12502
lthumb 9.81521 39.7518
rfemur -0.852373 -5.33719 31.2619
rtibia 26.2391
rfoot -24.9915 -9.86848
rtoes 1.48095
lfemur -28.4161 6.84172 -17.1297
ltibia 45.4374
lfoot -15.9859 8.19975
ltoes -15.3596
408
root 32.314 16.077 -13.951 11.7985 -65.2172 -13.802
lowerback 0.313766 0.548838 8.83693
upperback 3.66888 0.485069 1.12831
thorax 3.72166 0.477543 -3.76166
lowerneck -10.513 0.405397 3.20882
upperneck 19.2298 -0.086675 -0.622864
head 7.65409 0.0647529 -0.757068
rclavicle 1.16289e-014 -2.6339e-014
rhumerus -19.844 -2.04044 -84.1759
rradius 29.9371
rwrist 2.56143
rhand -16.778 -8.00505
rfingers 7.12502
rthumb 9.44954 -37.7732
lclavicle 1.16289e-014 -2.6339e-014
lhumerus -34.2296 7.67613 83.3209
lradius 32.2639
lwrist 19.2177
lhand -16.3331 9.96247
lfingers 7.12502
lthumb 9.87876 39.7107
rfemur -0.0322295 -5.47285 31.3894
rtibia 25.4824
rfoot -24.9467 -9.86486
rtoes 1.19051
lfemur -28.7903 7.06873 -17.4344
ltibia 43.4352
lfoot -16.0653 8.87776
ltoes -15.0731
409
root 32.1899 16.0709 -13.9023 12.2449 -65.1831 -14.1772
lowerback 0.18028 0.565973 9.01233
upperback 3.65803 0.490726 1.12786
thorax 3.7908 0.488442 -3.8586
lowerneck -10.5363 0.410963 3.18755
upperneck 19.1656 -0.0773683 -0.602912
head 7.63735 0.0696937 -0.745724
rclavicle -2.27795e-014 1.08338e-014
rhumerus -19.5397 -1.58522 -84.2823
rradius 30.2604
rwrist 2.31468
rhand -16.7958 -7.976
rfingers 7.12502
rthumb 9.43241 -37.7449
lclavicle -2.27795e-014 1.08338e-014
lhumerus -34.2927 7.94285 83.2531
lradius 31.847
lwrist 18.9922
lhand -16.2494 9.91939
lfingers 7.12502
lthumb 9.95956 39.6638
rfemur 0.795973 -5.60844 31.5311
rtibia 24.6879
rfoot -24.8848 -9.84393
rtoes 0.887941
lfemur -29.1467 7.32949 -17.7245
ltibia 41.413
lfoot -16.0647 9.45849
ltoes -14.7688
410
root 32.0657 16.0643 -13.853 12.7152 -65.1515 -14.5664
lowerback 0.0392329 0.582677 9.18407
upperback 3.64626 0.49439 1.13165
thorax 3.86298 0.498337 -3.94907
lowerneck -10.5671 0.421712 3.16192
upperneck 19.1037 -0.0606204 -0.581545
head 7.62282 0.0780452 -0.732496
rclavicle -3.3048e-014 9.74045e-015
rhumerus -19.2533 -1.15214 -84.3885
rradius 30.5958
rwrist 2.04939
rhand -16.7931 -7.97848
rfingers 7.12502
rthumb 9.43498 -37.7473
lclavicle -3.3048e-014 9.74045e-015
lhumerus -34.3481 8.21486 83.1856
lradius 31.3951
lwrist 18.7718
lhand -16.1579 9.87992
lfingers 7.12502
lthumb 10.0478 39.6201
rfemur 1.62897 -5.75247 31.6683
rtibia 23.8667
rfoot -24.7981 -9.79507
rtoes 0.572164
lfemur -29.4872 7.63006 -18.0204
ltibia 39.3776
lfoot -15.9513 9.96515
ltoes -14.6675
411
root 31.9415 16.057 -13.803 13.1829 -65.1245 -14.945
lowerback -0.100281 0.599414 9.34668
upperback 3.63244 0.498141 1.13454
thorax 3.93203 0.507921 -4.0354
lowerneck -10.5966 0.434713 3.15683
upperneck 19.0394 -0.0414033 -0.575769
head 7.60735 0.0875795 -0.727567
rclavicle 7.43579e-015 -6.31141e-015
rhumerus -18.9928 -0.741977 -84.4946
rradius 30.9409
rwrist 1.78691
rhand -16.798 -7.98452
rfingers 7.12502
rthumb 9.43028 -37.7535
lclavicle 7.43579e-015 -6.31141e-015
lhumerus -34.3941 8.49118 83.1156
lradius 30.9008
lwrist 18.543
lhand -16.063 9.83555
lfingers 7.12502
lthumb 10.1394 39.5712
rfemur 2.46461 -5.91306 31.7849
rtibia 23.0287
rfoot -24.6783 -9.7077
rtoes 0.246197
lfemur -29.8107 7.9694 -18.3344
ltibia 37.3414
lfoot -15.7543 10.3607
ltoes -14.7135
412
root 31.8172 16.0486 -13.7522 13.6559 -65.1066 -15.3329
lowerback -0.231825 0.615304 9.50211
upperback 3.62167 0.500855 1.14184
thorax 3.99951 0.516723 -4.11318
lowerneck -10.6339 0.452146 3.1517
upperneck 18.9782 -0.0145696 -0.578817
head 7.59441 0.0999697 -0.724812
rclavicle -2.21645e-014 -4.76835e-014
rhumerus -18.7526 -0.343008 -84.5994
rradius 31.2862
rwrist 1.54342
rhand -16.8105 -7.9963
rfingers 7.12502
rthumb 9.41819 -37.7659
lclavicle -2.21645e-014 -4.76835e-014
lhumerus -34.4276 8.78182 83.0462
lradius 30.364
lwrist 18.3057
lhand -15.9612 9.77745
lfingers 7.12502
lthumb 10.2376 39.5083
rfemur 3.30666 -6.08288 31.8885
rtibia 22.1904
rfoot -24.529 -9.58802
rtoes -0.113091
lfemur -30.1073 8.35013 -18.6561
ltibia 35.3159
lfoot -15.4806 10.6085
ltoes -14.9386
413
root 31.6926 16.0392 -13.7005 14.1136 -65.1035 -15.7154
lowerback -0.348085 0.630275 9.64554
upperback 3.61478 0.503625 1.14924
thorax 4.0622 0.525109 -4.18423
lowerneck -10.671 0.473734 3.15891
upperneck 18.9126 0.018875 -0.597366
head 7.58012 0.114946 -0.728538
rclavicle -3.68979e-014 -8.10048e-015
rhumerus -18.5381 0.0447225 -84.7056
rradius 31.6304
rwrist 1.32846
rhand -16.8418 -7.99719
rfingers 7.12502
rthumb 9.38797 -37.7681
lclavicle -3.68979e-014 -8.10048e-015
lhumerus -34.4499 9.08934 82.9755
lradius 29.7867
lwrist 18.0667
lhand -15.8902 9.7419
lfingers 7.12502
lthumb 10.3061 39.4694
rfemur 4.16201 -6.25488 31.9698
rtibia 21.3567
rfoot -24.3524 -9.43454
rtoes -0.499743
lfemur -30.3701 8.77134 -18.9907
ltibia 33.3219
lfoot -15.1692 10.6866
ltoes -15.2967
